<mxfile host="app.diagrams.net" agent="Mozilla/5.0 (Windows NT 10.0; Win64; x64) AppleWebKit/537.36 (KHTML, like Gecko) Chrome/138.0.0.0 Safari/537.36 Edg/138.0.0.0" version="28.0.6">
  <diagram name="Page-1" id="n1Xrt9_CvQl7ug9P44W1">
    <mxGraphModel grid="1" page="1" gridSize="10" guides="1" tooltips="1" connect="1" arrows="1" fold="1" pageScale="1" pageWidth="850" pageHeight="1100" math="0" shadow="0">
      <root>
        <mxCell id="0" />
        <mxCell id="1" parent="0" />
        <mxCell id="AKR2xT_lIjb-fL8-lYG4-14" value="" style="edgeStyle=orthogonalEdgeStyle;rounded=0;orthogonalLoop=1;jettySize=auto;html=1;entryX=0.794;entryY=0.013;entryDx=0;entryDy=0;entryPerimeter=0;exitX=0.5;exitY=1;exitDx=0;exitDy=0;" edge="1" parent="1" source="AKR2xT_lIjb-fL8-lYG4-1" target="AKR2xT_lIjb-fL8-lYG4-3">
          <mxGeometry relative="1" as="geometry">
            <mxPoint x="400" y="160" as="targetPoint" />
            <Array as="points">
              <mxPoint x="400" y="145" />
              <mxPoint x="299" y="145" />
            </Array>
          </mxGeometry>
        </mxCell>
        <mxCell id="AKR2xT_lIjb-fL8-lYG4-19" style="edgeStyle=orthogonalEdgeStyle;rounded=0;orthogonalLoop=1;jettySize=auto;html=1;entryX=0.5;entryY=0;entryDx=0;entryDy=0;" edge="1" parent="1" source="AKR2xT_lIjb-fL8-lYG4-1" target="AKR2xT_lIjb-fL8-lYG4-4">
          <mxGeometry relative="1" as="geometry" />
        </mxCell>
        <mxCell id="AKR2xT_lIjb-fL8-lYG4-1" value="UML Diagram" style="rounded=1;whiteSpace=wrap;html=1;" vertex="1" parent="1">
          <mxGeometry x="300" y="60" width="200" height="60" as="geometry" />
        </mxCell>
        <mxCell id="AKR2xT_lIjb-fL8-lYG4-20" style="edgeStyle=orthogonalEdgeStyle;rounded=0;orthogonalLoop=1;jettySize=auto;html=1;" edge="1" parent="1" source="AKR2xT_lIjb-fL8-lYG4-3">
          <mxGeometry relative="1" as="geometry">
            <mxPoint x="60" y="680" as="targetPoint" />
          </mxGeometry>
        </mxCell>
        <mxCell id="AKR2xT_lIjb-fL8-lYG4-3" value="behaviour&amp;nbsp;&lt;div&gt;diagram&lt;/div&gt;" style="rounded=1;whiteSpace=wrap;html=1;" vertex="1" parent="1">
          <mxGeometry x="140" y="170" width="200" height="60" as="geometry" />
        </mxCell>
        <mxCell id="AKR2xT_lIjb-fL8-lYG4-26" style="edgeStyle=orthogonalEdgeStyle;rounded=0;orthogonalLoop=1;jettySize=auto;html=1;" edge="1" parent="1">
          <mxGeometry relative="1" as="geometry">
            <mxPoint x="380" y="675" as="targetPoint" />
            <mxPoint x="500" y="185" as="sourcePoint" />
          </mxGeometry>
        </mxCell>
        <mxCell id="AKR2xT_lIjb-fL8-lYG4-4" value="structure&lt;div&gt;diagram&lt;/div&gt;" style="rounded=1;whiteSpace=wrap;html=1;" vertex="1" parent="1">
          <mxGeometry x="500" y="170" width="200" height="60" as="geometry" />
        </mxCell>
        <mxCell id="AKR2xT_lIjb-fL8-lYG4-21" style="edgeStyle=orthogonalEdgeStyle;rounded=0;orthogonalLoop=1;jettySize=auto;html=1;" edge="1" parent="1" target="AKR2xT_lIjb-fL8-lYG4-5">
          <mxGeometry relative="1" as="geometry">
            <mxPoint x="60" y="320" as="sourcePoint" />
          </mxGeometry>
        </mxCell>
        <mxCell id="AKR2xT_lIjb-fL8-lYG4-5" value="activity&lt;div&gt;diagram&lt;/div&gt;" style="rounded=1;whiteSpace=wrap;html=1;" vertex="1" parent="1">
          <mxGeometry x="90" y="290" width="200" height="60" as="geometry" />
        </mxCell>
        <mxCell id="AKR2xT_lIjb-fL8-lYG4-6" value="class&lt;div&gt;&amp;nbsp;diagram&lt;/div&gt;" style="rounded=1;whiteSpace=wrap;html=1;" vertex="1" parent="1">
          <mxGeometry x="430" y="290" width="200" height="60" as="geometry" />
        </mxCell>
        <mxCell id="AKR2xT_lIjb-fL8-lYG4-22" style="edgeStyle=orthogonalEdgeStyle;rounded=0;orthogonalLoop=1;jettySize=auto;html=1;" edge="1" parent="1" target="AKR2xT_lIjb-fL8-lYG4-7">
          <mxGeometry relative="1" as="geometry">
            <mxPoint x="50" y="430" as="sourcePoint" />
          </mxGeometry>
        </mxCell>
        <mxCell id="AKR2xT_lIjb-fL8-lYG4-7" value="interaction&lt;div&gt;diagram&lt;/div&gt;" style="rounded=1;whiteSpace=wrap;html=1;" vertex="1" parent="1">
          <mxGeometry x="90" y="400" width="200" height="60" as="geometry" />
        </mxCell>
        <mxCell id="AKR2xT_lIjb-fL8-lYG4-8" value="deployment&lt;div&gt;diagram&lt;/div&gt;" style="rounded=1;whiteSpace=wrap;html=1;" vertex="1" parent="1">
          <mxGeometry x="430" y="400" width="200" height="60" as="geometry" />
        </mxCell>
        <mxCell id="AKR2xT_lIjb-fL8-lYG4-9" value="state machine&lt;div&gt;diagram&lt;/div&gt;" style="rounded=1;whiteSpace=wrap;html=1;" vertex="1" parent="1">
          <mxGeometry x="90" y="540" width="200" height="60" as="geometry" />
        </mxCell>
        <mxCell id="AKR2xT_lIjb-fL8-lYG4-10" value="component&lt;div&gt;diagram&lt;/div&gt;" style="rounded=1;whiteSpace=wrap;html=1;" vertex="1" parent="1">
          <mxGeometry x="430" y="540" width="200" height="60" as="geometry" />
        </mxCell>
        <mxCell id="AKR2xT_lIjb-fL8-lYG4-11" value="use case&amp;nbsp;&lt;div&gt;diagram&lt;/div&gt;" style="rounded=1;whiteSpace=wrap;html=1;" vertex="1" parent="1">
          <mxGeometry x="90" y="650" width="200" height="60" as="geometry" />
        </mxCell>
        <mxCell id="AKR2xT_lIjb-fL8-lYG4-12" value="object&lt;div&gt;diagram&lt;/div&gt;" style="rounded=1;whiteSpace=wrap;html=1;" vertex="1" parent="1">
          <mxGeometry x="430" y="650" width="200" height="60" as="geometry" />
        </mxCell>
        <mxCell id="AKR2xT_lIjb-fL8-lYG4-23" style="edgeStyle=orthogonalEdgeStyle;rounded=0;orthogonalLoop=1;jettySize=auto;html=1;" edge="1" parent="1" target="AKR2xT_lIjb-fL8-lYG4-9">
          <mxGeometry relative="1" as="geometry">
            <mxPoint x="60" y="570" as="sourcePoint" />
          </mxGeometry>
        </mxCell>
        <mxCell id="AKR2xT_lIjb-fL8-lYG4-25" style="edgeStyle=orthogonalEdgeStyle;rounded=0;orthogonalLoop=1;jettySize=auto;html=1;" edge="1" parent="1">
          <mxGeometry relative="1" as="geometry">
            <mxPoint x="90" y="670" as="targetPoint" />
            <mxPoint x="60" y="670" as="sourcePoint" />
          </mxGeometry>
        </mxCell>
        <mxCell id="AKR2xT_lIjb-fL8-lYG4-27" style="edgeStyle=orthogonalEdgeStyle;rounded=0;orthogonalLoop=1;jettySize=auto;html=1;entryX=0;entryY=0.5;entryDx=0;entryDy=0;" edge="1" parent="1" target="AKR2xT_lIjb-fL8-lYG4-6">
          <mxGeometry relative="1" as="geometry">
            <mxPoint x="400" y="330" as="targetPoint" />
            <mxPoint x="370" y="330" as="sourcePoint" />
            <Array as="points">
              <mxPoint x="390" y="331" />
              <mxPoint x="390" y="320" />
            </Array>
          </mxGeometry>
        </mxCell>
        <mxCell id="AKR2xT_lIjb-fL8-lYG4-28" style="edgeStyle=orthogonalEdgeStyle;rounded=0;orthogonalLoop=1;jettySize=auto;html=1;entryX=0;entryY=0.5;entryDx=0;entryDy=0;" edge="1" parent="1">
          <mxGeometry relative="1" as="geometry">
            <mxPoint x="440" y="430" as="targetPoint" />
            <mxPoint x="380" y="440" as="sourcePoint" />
            <Array as="points">
              <mxPoint x="400" y="441" />
              <mxPoint x="400" y="430" />
            </Array>
          </mxGeometry>
        </mxCell>
        <mxCell id="AKR2xT_lIjb-fL8-lYG4-29" style="edgeStyle=orthogonalEdgeStyle;rounded=0;orthogonalLoop=1;jettySize=auto;html=1;entryX=0;entryY=0.5;entryDx=0;entryDy=0;" edge="1" parent="1">
          <mxGeometry relative="1" as="geometry">
            <mxPoint x="440" y="570" as="targetPoint" />
            <mxPoint x="380" y="580" as="sourcePoint" />
            <Array as="points">
              <mxPoint x="400" y="581" />
              <mxPoint x="400" y="570" />
            </Array>
          </mxGeometry>
        </mxCell>
        <mxCell id="AKR2xT_lIjb-fL8-lYG4-30" style="edgeStyle=orthogonalEdgeStyle;rounded=0;orthogonalLoop=1;jettySize=auto;html=1;entryX=0;entryY=0.5;entryDx=0;entryDy=0;" edge="1" parent="1">
          <mxGeometry relative="1" as="geometry">
            <mxPoint x="440" y="674.47" as="targetPoint" />
            <mxPoint x="380" y="684.47" as="sourcePoint" />
            <Array as="points">
              <mxPoint x="400" y="685.47" />
              <mxPoint x="400" y="674.47" />
            </Array>
          </mxGeometry>
        </mxCell>
        <mxCell id="AKR2xT_lIjb-fL8-lYG4-31" value="dynamic" style="whiteSpace=wrap;html=1;" vertex="1" parent="1">
          <mxGeometry x="100" y="80" width="120" height="60" as="geometry" />
        </mxCell>
        <mxCell id="AKR2xT_lIjb-fL8-lYG4-34" value="static" style="whiteSpace=wrap;html=1;" vertex="1" parent="1">
          <mxGeometry x="620" y="70" width="120" height="60" as="geometry" />
        </mxCell>
      </root>
    </mxGraphModel>
  </diagram>
</mxfile>
